<mxfile host="app.diagrams.net" agent="Mozilla/5.0 (Windows NT 10.0; Win64; x64) AppleWebKit/537.36 (KHTML, like Gecko) Chrome/131.0.0.0 Safari/537.36" version="25.0.1">
  <diagram name="Trang-1" id="We_aBYhM4WvLumB1KFKf">
    <mxGraphModel dx="1861" dy="446" grid="1" gridSize="10" guides="1" tooltips="1" connect="1" arrows="1" fold="1" page="1" pageScale="1" pageWidth="827" pageHeight="1169" math="0" shadow="0">
      <root>
        <mxCell id="0" />
        <mxCell id="1" parent="0" />
        <mxCell id="AU0o8Nyvfmz5UwYk-aSr-5" value="" style="edgeStyle=orthogonalEdgeStyle;rounded=0;orthogonalLoop=1;jettySize=auto;html=1;" edge="1" parent="1" source="AU0o8Nyvfmz5UwYk-aSr-1" target="AU0o8Nyvfmz5UwYk-aSr-4">
          <mxGeometry relative="1" as="geometry" />
        </mxCell>
        <mxCell id="AU0o8Nyvfmz5UwYk-aSr-1" value="start" style="ellipse;whiteSpace=wrap;html=1;" vertex="1" parent="1">
          <mxGeometry x="294" y="20" width="120" height="80" as="geometry" />
        </mxCell>
        <mxCell id="AU0o8Nyvfmz5UwYk-aSr-7" value="" style="edgeStyle=orthogonalEdgeStyle;rounded=0;orthogonalLoop=1;jettySize=auto;html=1;" edge="1" parent="1" source="AU0o8Nyvfmz5UwYk-aSr-4" target="AU0o8Nyvfmz5UwYk-aSr-6">
          <mxGeometry relative="1" as="geometry" />
        </mxCell>
        <mxCell id="AU0o8Nyvfmz5UwYk-aSr-4" value="nhap a&amp;nbsp;" style="shape=parallelogram;perimeter=parallelogramPerimeter;whiteSpace=wrap;html=1;fixedSize=1;" vertex="1" parent="1">
          <mxGeometry x="294" y="150" width="120" height="60" as="geometry" />
        </mxCell>
        <mxCell id="AU0o8Nyvfmz5UwYk-aSr-9" value="" style="edgeStyle=orthogonalEdgeStyle;rounded=0;orthogonalLoop=1;jettySize=auto;html=1;" edge="1" parent="1" source="AU0o8Nyvfmz5UwYk-aSr-6" target="AU0o8Nyvfmz5UwYk-aSr-8">
          <mxGeometry relative="1" as="geometry" />
        </mxCell>
        <mxCell id="AU0o8Nyvfmz5UwYk-aSr-12" value="đúng" style="edgeLabel;html=1;align=center;verticalAlign=middle;resizable=0;points=[];" vertex="1" connectable="0" parent="AU0o8Nyvfmz5UwYk-aSr-9">
          <mxGeometry x="-0.0667" y="-1" relative="1" as="geometry">
            <mxPoint as="offset" />
          </mxGeometry>
        </mxCell>
        <mxCell id="AU0o8Nyvfmz5UwYk-aSr-11" value="" style="edgeStyle=orthogonalEdgeStyle;rounded=0;orthogonalLoop=1;jettySize=auto;html=1;" edge="1" parent="1" source="AU0o8Nyvfmz5UwYk-aSr-6" target="AU0o8Nyvfmz5UwYk-aSr-10">
          <mxGeometry relative="1" as="geometry" />
        </mxCell>
        <mxCell id="AU0o8Nyvfmz5UwYk-aSr-13" value="sai" style="edgeLabel;html=1;align=center;verticalAlign=middle;resizable=0;points=[];" vertex="1" connectable="0" parent="AU0o8Nyvfmz5UwYk-aSr-11">
          <mxGeometry x="-0.1333" y="2" relative="1" as="geometry">
            <mxPoint as="offset" />
          </mxGeometry>
        </mxCell>
        <mxCell id="AU0o8Nyvfmz5UwYk-aSr-6" value="kt xem a =0" style="rhombus;whiteSpace=wrap;html=1;" vertex="1" parent="1">
          <mxGeometry x="314" y="260" width="80" height="80" as="geometry" />
        </mxCell>
        <mxCell id="AU0o8Nyvfmz5UwYk-aSr-27" value="" style="edgeStyle=orthogonalEdgeStyle;rounded=0;orthogonalLoop=1;jettySize=auto;html=1;" edge="1" parent="1" source="AU0o8Nyvfmz5UwYk-aSr-8" target="AU0o8Nyvfmz5UwYk-aSr-26">
          <mxGeometry relative="1" as="geometry" />
        </mxCell>
        <mxCell id="AU0o8Nyvfmz5UwYk-aSr-30" value="" style="edgeStyle=orthogonalEdgeStyle;rounded=0;orthogonalLoop=1;jettySize=auto;html=1;" edge="1" parent="1" source="AU0o8Nyvfmz5UwYk-aSr-8" target="AU0o8Nyvfmz5UwYk-aSr-29">
          <mxGeometry relative="1" as="geometry">
            <Array as="points">
              <mxPoint x="194" y="380" />
              <mxPoint x="194" y="380" />
            </Array>
          </mxGeometry>
        </mxCell>
        <mxCell id="AU0o8Nyvfmz5UwYk-aSr-8" value="&amp;nbsp;kt b = 0&amp;nbsp;" style="rhombus;whiteSpace=wrap;html=1;" vertex="1" parent="1">
          <mxGeometry x="154" y="260" width="80" height="80" as="geometry" />
        </mxCell>
        <mxCell id="AU0o8Nyvfmz5UwYk-aSr-33" value="" style="edgeStyle=orthogonalEdgeStyle;rounded=0;orthogonalLoop=1;jettySize=auto;html=1;" edge="1" parent="1">
          <mxGeometry relative="1" as="geometry">
            <mxPoint x="520" y="340" as="sourcePoint" />
            <mxPoint x="436" y="536" as="targetPoint" />
            <Array as="points">
              <mxPoint x="520" y="536" />
            </Array>
          </mxGeometry>
        </mxCell>
        <mxCell id="AU0o8Nyvfmz5UwYk-aSr-10" value="x = -b/2a" style="rhombus;whiteSpace=wrap;html=1;" vertex="1" parent="1">
          <mxGeometry x="474" y="260" width="80" height="80" as="geometry" />
        </mxCell>
        <mxCell id="AU0o8Nyvfmz5UwYk-aSr-36" value="" style="edgeStyle=orthogonalEdgeStyle;rounded=0;orthogonalLoop=1;jettySize=auto;html=1;" edge="1" parent="1" source="AU0o8Nyvfmz5UwYk-aSr-26">
          <mxGeometry relative="1" as="geometry">
            <mxPoint x="200" y="530" as="targetPoint" />
            <Array as="points">
              <mxPoint x="34" y="460" />
              <mxPoint x="30" y="460" />
              <mxPoint x="30" y="530" />
            </Array>
          </mxGeometry>
        </mxCell>
        <mxCell id="AU0o8Nyvfmz5UwYk-aSr-26" value="vô số nghiệm" style="rhombus;whiteSpace=wrap;html=1;" vertex="1" parent="1">
          <mxGeometry x="-6" y="260" width="80" height="80" as="geometry" />
        </mxCell>
        <mxCell id="AU0o8Nyvfmz5UwYk-aSr-28" value="đúng" style="text;html=1;align=center;verticalAlign=middle;resizable=0;points=[];autosize=1;strokeColor=none;fillColor=none;" vertex="1" parent="1">
          <mxGeometry x="75" y="278" width="50" height="30" as="geometry" />
        </mxCell>
        <mxCell id="AU0o8Nyvfmz5UwYk-aSr-29" value="vô nghiệm&amp;nbsp;" style="rhombus;whiteSpace=wrap;html=1;" vertex="1" parent="1">
          <mxGeometry x="154" y="420" width="80" height="80" as="geometry" />
        </mxCell>
        <mxCell id="AU0o8Nyvfmz5UwYk-aSr-34" value="" style="edgeStyle=orthogonalEdgeStyle;rounded=0;orthogonalLoop=1;jettySize=auto;html=1;" edge="1" parent="1" source="AU0o8Nyvfmz5UwYk-aSr-32" target="AU0o8Nyvfmz5UwYk-aSr-29">
          <mxGeometry relative="1" as="geometry">
            <Array as="points">
              <mxPoint x="194" y="530" />
            </Array>
          </mxGeometry>
        </mxCell>
        <mxCell id="AU0o8Nyvfmz5UwYk-aSr-32" value="" style="ellipse;whiteSpace=wrap;html=1;" vertex="1" parent="1">
          <mxGeometry x="272" y="490" width="164" height="80" as="geometry" />
        </mxCell>
      </root>
    </mxGraphModel>
  </diagram>
</mxfile>
